<?xml version="1.0" encoding="UTF-8" standalone="no"?>
<svg
   xmlns:dc="http://purl.org/dc/elements/1.1/"
   xmlns:cc="http://creativecommons.org/ns#"
   xmlns:rdf="http://www.w3.org/1999/02/22-rdf-syntax-ns#"
   xmlns:svg="http://www.w3.org/2000/svg"
   xmlns="http://www.w3.org/2000/svg"
   viewBox="0 0 564.71069 229.74133"
   height="229.74133"
   width="564.71069"
   xml:space="preserve"
   id="svg2"
   version="1.1"><metadata
     id="metadata8"><rdf:RDF><cc:Work
         rdf:about=""><dc:format>image/svg+xml</dc:format><dc:type
           rdf:resource="http://purl.org/dc/dcmitype/StillImage" /></cc:Work></rdf:RDF></metadata><defs
     id="defs6"><pattern
       id="pattern84"
       height="0.797"
       width="4.98138"
       y="0"
       x="0"
       patternUnits="userSpaceOnUse"
       patternTransform="matrix(0.76604,0.64279,-0.64279,0.76604,-50.386,-33.672)"><g
         id="g82"><g
           id="g80"><path
             id="path78"
             style="fill:none;stroke:#0000ff;stroke-opacity:1;stroke-width:0.79701;stroke-linecap:butt;stroke-linejoin:miter;stroke-miterlimit:10;stroke-dasharray:none"
             d="M 0,0 4.98138,0" /></g></g></pattern></defs><g
     transform="matrix(1.3333333,0,0,-1.3333333,0,229.74133)"
     id="g10"><g
       transform="translate(50.386,33.672)"
       id="g12"><g
         id="g14"><g
           id="g16"><path
             id="path18"
             style="fill:none;stroke:#000000;stroke-width:0.3985;stroke-linecap:butt;stroke-linejoin:miter;stroke-miterlimit:10;stroke-dasharray:none;stroke-opacity:1"
             d="M 0,0 H 333.18782" /><g
             transform="translate(333.18782)"
             id="g20"><g
               id="g22"><path
                 id="path24"
                 style="fill:#000000;fill-opacity:1;fill-rule:nonzero;stroke:#000000;stroke-width:0.3985;stroke-linecap:butt;stroke-linejoin:miter;stroke-miterlimit:10;stroke-dasharray:none;stroke-opacity:1"
                 d="M 6.15236,0 C 5.39682,0.18257 2.07571,1.21715 0,2.34303 V -2.34303 C 2.07571,-1.21715 5.39682,-0.18257 6.15236,0 Z" /></g></g><g
             id="g26"><g
               transform="matrix(2,0,0,2,347.197,-15.619)"
               id="g28"><g
                 id="g30"><g
                   transform="translate(-397.583,-18.053)"
                   id="g32"><text
                     id="text36"
                     style="font-variant:normal;font-weight:normal;font-size:9.96259975px;font-family:CMMI10;-inkscape-font-specification:CMMI10;writing-mode:lr-tb;fill:#000000;fill-opacity:1;fill-rule:nonzero;stroke:none"
                     transform="matrix(1,0,0,-1,397.583,18.053)"><tspan
                       id="tspan34"
                       y="0"
                       x="0">e</tspan></text>
<text
                     id="text40"
                     style="font-variant:normal;font-weight:normal;font-size:6.97380018px;font-family:CMMI7;-inkscape-font-specification:CMMI7;writing-mode:lr-tb;fill:#000000;fill-opacity:1;fill-rule:nonzero;stroke:none"
                     transform="matrix(1,0,0,-1,402.222,16.559)"><tspan
                       id="tspan38"
                       y="0"
                       x="0">x</tspan></text>
<g
                     transform="translate(397.583,18.053)"
                     id="g42" /></g></g><g
                 transform="translate(-347.197,15.619)"
                 id="g44" /></g></g><path
             id="path46"
             style="fill:none;stroke:#000000;stroke-width:0.3985;stroke-linecap:butt;stroke-linejoin:miter;stroke-miterlimit:10;stroke-dasharray:none;stroke-opacity:1"
             d="M 0,0 V 106.41335" /><g
             transform="rotate(90,-53.206675,53.206675)"
             id="g48"><g
               id="g50"><path
                 id="path52"
                 style="fill:#000000;fill-opacity:1;fill-rule:nonzero;stroke:#000000;stroke-width:0.3985;stroke-linecap:butt;stroke-linejoin:miter;stroke-miterlimit:10;stroke-dasharray:none;stroke-opacity:1"
                 d="M 6.15236,0 C 5.39682,0.18257 2.07571,1.21715 0,2.34303 V -2.34303 C 2.07571,-1.21715 5.39682,-0.18257 6.15236,0 Z" /></g></g><g
             id="g54"><g
               transform="matrix(2,0,0,2,-25.498,123.414)"
               id="g56"><g
                 id="g58"><g
                   transform="translate(-24.888,-157.086)"
                   id="g60"><text
                     id="text64"
                     style="font-variant:normal;font-weight:normal;font-size:9.96259975px;font-family:CMMI10;-inkscape-font-specification:CMMI10;writing-mode:lr-tb;fill:#000000;fill-opacity:1;fill-rule:nonzero;stroke:none"
                     transform="matrix(1,0,0,-1,24.888,157.086)"><tspan
                       id="tspan62"
                       y="0"
                       x="0">e</tspan></text>
<text
                     id="text68"
                     style="font-variant:normal;font-weight:normal;font-size:6.97380018px;font-family:CMMI7;-inkscape-font-specification:CMMI7;writing-mode:lr-tb;fill:#000000;fill-opacity:1;fill-rule:nonzero;stroke:none"
                     transform="matrix(1,0,0,-1,29.527,155.592)"><tspan
                       id="tspan66"
                       y="0"
                       x="0">z</tspan></text>
<g
                     transform="translate(24.888,157.086)"
                     id="g70" /></g></g><g
                 transform="translate(25.498,-123.414)"
                 id="g72" /></g></g><path
             id="path74"
             style="fill:none;stroke:#000000;stroke-width:0.3985;stroke-linecap:butt;stroke-linejoin:miter;stroke-miterlimit:10;stroke-dasharray:none;stroke-opacity:1"
             d="M 0,14.17339 V 85.04042 H 283.4681 V 14.17339 Z" /><g
             id="g76"><path
               id="path86"
               style="fill:url(#pattern84);fill-opacity:1;fill-rule:nonzero;stroke:#000000;stroke-width:0.3985;stroke-linecap:butt;stroke-linejoin:miter;stroke-miterlimit:10;stroke-dasharray:none;stroke-opacity:1"
               d="M 2.83484,34.01608 V 56.69362 H 280.63322 V 34.01608 Z" /></g><g
             id="g88"><path
               id="path90"
               style="fill:none;stroke:#808080;stroke-width:0.79701;stroke-linecap:butt;stroke-linejoin:miter;stroke-miterlimit:10;stroke-dasharray:5.97766, 2.98883;stroke-dashoffset:0;stroke-opacity:1"
               d="M 2.83484,70.867 H 280.63322" /></g><g
             id="g92"><g
               id="g94"><path
                 id="path96"
                 style="fill:none;stroke:#000000;stroke-width:4.98137999;stroke-linecap:butt;stroke-linejoin:miter;stroke-miterlimit:10;stroke-dasharray:none;stroke-opacity:1"
                 d="m -42.5202,70.867 h 23.59547" /><g
                 id="g98"><path
                   id="path100"
                   style="fill:none;stroke:#ffffff;stroke-width:2.98883009;stroke-linecap:butt;stroke-linejoin:miter;stroke-miterlimit:10;stroke-dasharray:none;stroke-opacity:1"
                   d="m -42.5202,70.867 h 23.59547" /></g><g
                 transform="translate(-18.92473,70.867)"
                 id="g102"><g
                   id="g104"><path
                     id="path106"
                     style="fill:none;stroke:#000000;stroke-width:0.99628001;stroke-linecap:butt;stroke-linejoin:miter;stroke-miterlimit:10;stroke-dasharray:none;stroke-opacity:1"
                     d="M 14.03601,0 C 12.31233,0.41714 4.73557,2.7809 0,5.35321 V -5.35321 C 4.73557,-2.7809 12.31233,-0.41714 14.03601,0 Z" /></g></g></g></g><g
             id="g108"><g
               id="g110"><path
                 id="path112"
                 style="fill:none;stroke:#000000;stroke-width:4.98137999;stroke-linecap:butt;stroke-linejoin:miter;stroke-miterlimit:10;stroke-dasharray:none;stroke-opacity:1"
                 d="m 303.31076,70.867 h 20.76106" /><g
                 id="g114"><path
                   id="path116"
                   style="fill:none;stroke:#ffffff;stroke-width:2.98883009;stroke-linecap:butt;stroke-linejoin:miter;stroke-miterlimit:10;stroke-dasharray:none;stroke-opacity:1"
                   d="m 303.31076,70.867 h 20.76106" /></g><g
                 transform="translate(324.07182,70.867)"
                 id="g118"><g
                   id="g120"><path
                     id="path122"
                     style="fill:none;stroke:#000000;stroke-width:0.99628001;stroke-linecap:butt;stroke-linejoin:miter;stroke-miterlimit:10;stroke-dasharray:none;stroke-opacity:1"
                     d="M 14.03601,0 C 12.31233,0.41714 4.73557,2.7809 0,5.35321 V -5.35321 C 4.73557,-2.7809 12.31233,-0.41714 14.03601,0 Z" /></g></g></g></g><g
             id="g124"><g
               id="g126"><path
                 id="path128"
                 style="fill:none;stroke:#000000;stroke-width:4.98137999;stroke-linecap:butt;stroke-linejoin:miter;stroke-miterlimit:10;stroke-dasharray:none;stroke-opacity:1"
                 d="M 269.29468,11.33855 V -15.09177" /><g
                 id="g130"><path
                   id="path132"
                   style="fill:none;stroke:#ffffff;stroke-width:2.98883009;stroke-linecap:butt;stroke-linejoin:miter;stroke-miterlimit:10;stroke-dasharray:none;stroke-opacity:1"
                   d="M 269.29468,11.33855 V -15.09177" /></g><g
                 transform="rotate(-90,127.10146,-142.19322)"
                 id="g134"><g
                   id="g136"><path
                     id="path138"
                     style="fill:none;stroke:#000000;stroke-width:0.99628001;stroke-linecap:butt;stroke-linejoin:miter;stroke-miterlimit:10;stroke-dasharray:none;stroke-opacity:1"
                     d="M 14.03601,0 C 12.31233,0.41714 4.73557,2.7809 0,5.35321 V -5.35321 C 4.73557,-2.7809 12.31233,-0.41714 14.03601,0 Z" /></g></g></g></g><g
             id="g140"><path
               id="path142"
               style="fill:none;stroke:#0000ff;stroke-width:0.79701;stroke-linecap:butt;stroke-linejoin:miter;stroke-miterlimit:10;stroke-dasharray:none;stroke-opacity:1"
               d="m 113.38724,85.04042 0.0618,-1.85387 0.18167,-1.84564 0.30191,-1.83006 0.42042,-1.80715 0.53939,-1.7747 0.65356,-1.73576 0.76558,-1.68952 0.87332,-1.63672 0.98055,-1.57443 1.08049,-1.50783 1.17694,-1.43431 1.26689,-1.35426 1.35428,-1.26691 1.43429,-1.17692 1.50783,-1.08049 1.57443,-0.98056 1.63674,-0.87331 1.6895,-0.76558 1.73576,-0.65356 1.7747,-0.53939 1.80715,-0.42042 1.83006,-0.30191 1.84564,-0.18167 1.85387,-0.06183" /></g><g
             id="g144"><path
               id="path146"
               style="fill:none;stroke:#0000ff;stroke-width:0.79701;stroke-linecap:butt;stroke-linejoin:miter;stroke-miterlimit:10;stroke-dasharray:none;stroke-opacity:1"
               d="m 147.40332,56.69362 c 0,0 8.50412,0 8.50412,0" /></g><g
             id="g148"><path
               id="path150"
               style="fill:none;stroke:#0000ff;stroke-width:0.79701;stroke-linecap:butt;stroke-linejoin:miter;stroke-miterlimit:10;stroke-dasharray:none;stroke-opacity:1"
               d="m 155.90744,56.69362 c 0,0 -56.69362,-22.67754 -56.69362,-22.67754" /></g><g
             id="g152"><path
               id="path154"
               style="fill:none;stroke:#0000ff;stroke-width:0.79701;stroke-linecap:butt;stroke-linejoin:miter;stroke-miterlimit:10;stroke-dasharray:none;stroke-opacity:1"
               d="m 99.21382,34.01608 c 0,0 -14.1734,0 -14.1734,0" /></g><g
             id="g156"><path
               id="path158"
               style="fill:none;stroke:#0000ff;stroke-width:0.79701;stroke-linecap:butt;stroke-linejoin:miter;stroke-miterlimit:10;stroke-dasharray:none;stroke-opacity:1"
               d="m 85.04042,34.01608 c 0,0 0,-19.84269 0,-19.84269" /></g><g
             id="g160"><path
               id="path162"
               style="fill:none;stroke:#000000;stroke-width:0.79701;stroke-linecap:butt;stroke-linejoin:miter;stroke-miterlimit:10;stroke-dasharray:none;stroke-opacity:1"
               d="m 115.37979,85.04042 c 0,1.10048 -0.89209,1.99255 -1.99255,1.99255 -1.10048,0 -1.99256,-0.89207 -1.99256,-1.99255 0,-1.10046 0.89208,-1.99255 1.99256,-1.99255 1.10046,0 1.99255,0.89209 1.99255,1.99255 z" /></g><g
             id="g164"><path
               id="path166"
               style="fill:#ffffff;fill-opacity:1;fill-rule:nonzero;stroke:none"
               d="m 115.37979,85.04042 c 0,1.10048 -0.89209,1.99255 -1.99255,1.99255 -1.10048,0 -1.99256,-0.89207 -1.99256,-1.99255 0,-1.10046 0.89208,-1.99255 1.99256,-1.99255 1.10046,0 1.99255,0.89209 1.99255,1.99255 z" /></g><g
             id="g168"><g
               transform="matrix(1.2,0,0,1.2,116.714,88.135)"
               id="g170"><g
                 id="g172"><g
                   transform="translate(-167.1,-121.807)"
                   id="g174"><text
                     id="text178"
                     style="font-variant:normal;font-weight:normal;font-size:9.96259975px;font-family:CMR10;-inkscape-font-specification:CMR10;writing-mode:lr-tb;fill:#000000;fill-opacity:1;fill-rule:nonzero;stroke:none"
                     transform="matrix(1,0,0,-1,167.1,121.807)"><tspan
                       id="tspan176"
                       y="0"
                       x="0">r</tspan></text>
<g
                     transform="translate(167.1,121.807)"
                     id="g180" /></g></g><g
                 transform="translate(-116.714,-88.135)"
                 id="g182" /></g></g><g
             id="g184"><path
               id="path186"
               style="fill:none;stroke:#000000;stroke-width:0.79701;stroke-linecap:butt;stroke-linejoin:miter;stroke-miterlimit:10;stroke-dasharray:none;stroke-opacity:1"
               d="m 149.39587,56.69362 c 0,1.10046 -0.89209,1.99255 -1.99255,1.99255 -1.10048,0 -1.99255,-0.89209 -1.99255,-1.99255 0,-1.10048 0.89207,-1.99255 1.99255,-1.99255 1.10046,0 1.99255,0.89207 1.99255,1.99255 z" /></g><g
             id="g188"><path
               id="path190"
               style="fill:#ffffff;fill-opacity:1;fill-rule:nonzero;stroke:none"
               d="m 149.39587,56.69362 c 0,1.10046 -0.89209,1.99255 -1.99255,1.99255 -1.10048,0 -1.99255,-0.89209 -1.99255,-1.99255 0,-1.10048 0.89207,-1.99255 1.99255,-1.99255 1.10046,0 1.99255,0.89207 1.99255,1.99255 z" /></g><g
             id="g192"><g
               transform="matrix(1.2,0,0,1.2,132.417,61.206)"
               id="g194"><g
                 id="g196"><g
                   transform="translate(-182.803,-94.878)"
                   id="g198"><text
                     id="text202"
                     style="font-variant:normal;font-weight:normal;font-size:9.96259975px;font-family:CMR10;-inkscape-font-specification:CMR10;writing-mode:lr-tb;fill:#000000;fill-opacity:1;fill-rule:nonzero;stroke:none"
                     transform="matrix(1,0,0,-1,182.803,94.878)"><tspan
                       id="tspan200"
                       y="0"
                       x="0 3.9023504 7.2228851">r-m</tspan></text>
<g
                     transform="translate(182.803,94.878)"
                     id="g204" /></g></g><g
                 transform="translate(-132.417,-61.206)"
                 id="g206" /></g></g><g
             id="g208"><path
               id="path210"
               style="fill:none;stroke:#000000;stroke-width:0.79701;stroke-linecap:butt;stroke-linejoin:miter;stroke-miterlimit:10;stroke-dasharray:none;stroke-opacity:1"
               d="m 157.9,56.69362 c 0,1.10046 -0.8921,1.99255 -1.99256,1.99255 -1.10048,0 -1.99255,-0.89209 -1.99255,-1.99255 0,-1.10048 0.89207,-1.99255 1.99255,-1.99255 1.10046,0 1.99256,0.89207 1.99256,1.99255 z" /></g><g
             id="g212"><path
               id="path214"
               style="fill:#ffffff;fill-opacity:1;fill-rule:nonzero;stroke:none"
               d="m 157.9,56.69362 c 0,1.10046 -0.8921,1.99255 -1.99256,1.99255 -1.10048,0 -1.99255,-0.89209 -1.99255,-1.99255 0,-1.10048 0.89207,-1.99255 1.99255,-1.99255 1.10046,0 1.99256,0.89207 1.99256,1.99255 z" /></g><g
             id="g216"><g
               transform="matrix(1.2,0,0,1.2,159.428,61.206)"
               id="g218"><g
                 id="g220"><g
                   transform="translate(-209.814,-94.878)"
                   id="g222"><text
                     id="text226"
                     style="font-variant:normal;font-weight:normal;font-size:9.96259975px;font-family:CMR10;-inkscape-font-specification:CMR10;writing-mode:lr-tb;fill:#000000;fill-opacity:1;fill-rule:nonzero;stroke:none"
                     transform="matrix(1,0,0,-1,209.814,94.878)"><tspan
                       id="tspan224"
                       y="0"
                       x="0">m</tspan></text>
<g
                     transform="translate(209.814,94.878)"
                     id="g228" /></g></g><g
                 transform="translate(-159.428,-61.206)"
                 id="g230" /></g></g><g
             id="g232"><path
               id="path234"
               style="fill:none;stroke:#000000;stroke-width:0.79701;stroke-linecap:butt;stroke-linejoin:miter;stroke-miterlimit:10;stroke-dasharray:none;stroke-opacity:1"
               d="m 101.20638,34.01608 c 0,1.10047 -0.89209,1.99256 -1.99256,1.99256 -1.10048,0 -1.99255,-0.89209 -1.99255,-1.99256 0,-1.10048 0.89207,-1.99255 1.99255,-1.99255 1.10047,0 1.99256,0.89207 1.99256,1.99255 z" /></g><g
             id="g236"><path
               id="path238"
               style="fill:#ffffff;fill-opacity:1;fill-rule:nonzero;stroke:none"
               d="m 101.20638,34.01608 c 0,1.10047 -0.89209,1.99256 -1.99256,1.99256 -1.10048,0 -1.99255,-0.89209 -1.99255,-1.99256 0,-1.10048 0.89207,-1.99255 1.99255,-1.99255 1.10047,0 1.99256,0.89207 1.99256,1.99255 z" /></g><g
             id="g240"><g
               transform="matrix(1.2,0,0,1.2,102.735,24.355)"
               id="g242"><g
                 id="g244"><g
                   transform="translate(-153.121,-58.027)"
                   id="g246"><text
                     id="text250"
                     style="font-variant:normal;font-weight:normal;font-size:9.96259975px;font-family:CMR10;-inkscape-font-specification:CMR10;writing-mode:lr-tb;fill:#000000;fill-opacity:1;fill-rule:nonzero;stroke:none"
                     transform="matrix(1,0,0,-1,153.121,58.027)"><tspan
                       id="tspan248"
                       y="0"
                       x="0">m</tspan></text>
<g
                     transform="translate(153.121,58.027)"
                     id="g252" /></g></g><g
                 transform="translate(-102.735,-24.355)"
                 id="g254" /></g></g><g
             id="g256"><path
               id="path258"
               style="fill:none;stroke:#000000;stroke-width:0.79701;stroke-linecap:butt;stroke-linejoin:miter;stroke-miterlimit:10;stroke-dasharray:none;stroke-opacity:1"
               d="m 87.03297,34.01608 c 0,1.10047 -0.89207,1.99256 -1.99255,1.99256 -1.10046,0 -1.99255,-0.89209 -1.99255,-1.99256 0,-1.10048 0.89209,-1.99255 1.99255,-1.99255 1.10048,0 1.99255,0.89207 1.99255,1.99255 z" /></g><g
             id="g260"><path
               id="path262"
               style="fill:#ffffff;fill-opacity:1;fill-rule:nonzero;stroke:none"
               d="m 87.03297,34.01608 c 0,1.10047 -0.89207,1.99256 -1.99255,1.99256 -1.10046,0 -1.99255,-0.89209 -1.99255,-1.99256 0,-1.10048 0.89209,-1.99255 1.99255,-1.99255 1.10048,0 1.99255,0.89207 1.99255,1.99255 z" /></g><g
             id="g264"><g
               transform="matrix(1.2,0,0,1.2,60.571,25.518)"
               id="g266"><g
                 id="g268"><g
                   transform="translate(-110.957,-59.19)"
                   id="g270"><text
                     id="text274"
                     style="font-variant:normal;font-weight:normal;font-size:9.96259975px;font-family:CMR10;-inkscape-font-specification:CMR10;writing-mode:lr-tb;fill:#000000;fill-opacity:1;fill-rule:nonzero;stroke:none"
                     transform="matrix(1,0,0,-1,110.957,59.19)"><tspan
                       id="tspan272"
                       y="0"
                       x="0 8.3018341 11.622369">m-p</tspan></text>
<g
                     transform="translate(110.957,59.19)"
                     id="g276" /></g></g><g
                 transform="translate(-60.571,-25.518)"
                 id="g278" /></g></g><g
             id="g280"><path
               id="path282"
               style="fill:none;stroke:#000000;stroke-width:0.79701;stroke-linecap:butt;stroke-linejoin:miter;stroke-miterlimit:10;stroke-dasharray:none;stroke-opacity:1"
               d="m 87.03297,14.17339 c 0,1.10047 -0.89207,1.99255 -1.99255,1.99255 -1.10046,0 -1.99255,-0.89208 -1.99255,-1.99255 0,-1.10047 0.89209,-1.99256 1.99255,-1.99256 1.10048,0 1.99255,0.89209 1.99255,1.99256 z" /></g><g
             id="g284"><path
               id="path286"
               style="fill:#ffffff;fill-opacity:1;fill-rule:nonzero;stroke:none"
               d="m 87.03297,14.17339 c 0,1.10047 -0.89207,1.99255 -1.99255,1.99255 -1.10046,0 -1.99255,-0.89208 -1.99255,-1.99255 0,-1.10047 0.89209,-1.99256 1.99255,-1.99256 1.10048,0 1.99255,0.89209 1.99255,1.99256 z" /></g><g
             id="g288"><g
               transform="matrix(1.2,0,0,1.2,90.222,5.675)"
               id="g290"><g
                 id="g292"><g
                   transform="translate(-140.608,-39.347)"
                   id="g294"><text
                     id="text298"
                     style="font-variant:normal;font-weight:normal;font-size:9.96259975px;font-family:CMR10;-inkscape-font-specification:CMR10;writing-mode:lr-tb;fill:#000000;fill-opacity:1;fill-rule:nonzero;stroke:none"
                     transform="matrix(1,0,0,-1,140.608,39.347)"><tspan
                       id="tspan296"
                       y="0"
                       x="0">p</tspan></text>
<g
                     transform="translate(140.608,39.347)"
                     id="g300" /></g></g><g
                 transform="translate(-90.222,-5.675)"
                 id="g302" /></g></g><g
             id="g304"><g
               transform="translate(-47.065,86.87)"
               id="g306"><g
                 id="g308"><g
                   transform="translate(-3.321,-120.542)"
                   id="g310"><text
                     id="text316"
                     style="font-variant:normal;font-weight:normal;font-size:9.96259975px;font-family:CMR10;-inkscape-font-specification:CMR10;writing-mode:lr-tb;fill:#000000;fill-opacity:1;fill-rule:nonzero;stroke:none"
                     transform="matrix(1,0,0,-1,3.321,120.542)"><tspan
                       id="tspan312"
                       y="0"
                       x="0 5.6766896 10.104069 14.531448">Feed</tspan><tspan
                       id="tspan314"
                       y="-2.5179999"
                       x="26.013">˙</tspan></text>
<text
                     id="text320"
                     style="font-variant:normal;font-weight:normal;font-size:9.96259975px;font-family:CMMI10;-inkscape-font-specification:CMMI10;writing-mode:lr-tb;fill:#000000;fill-opacity:1;fill-rule:nonzero;stroke:none"
                     transform="matrix(1,0,0,-1,26.705,120.542)"><tspan
                       id="tspan318"
                       y="0"
                       x="0">V</tspan></text>
<text
                     id="text324"
                     style="font-variant:normal;font-weight:normal;font-size:6.97380018px;font-family:CMMI7;-inkscape-font-specification:CMMI7;writing-mode:lr-tb;fill:#000000;fill-opacity:1;fill-rule:nonzero;stroke:none"
                     transform="matrix(1,0,0,-1,32.517,119.047)"><tspan
                       id="tspan322"
                       y="0"
                       x="0 2.81881">in</tspan></text>
<g
                     transform="translate(3.321,120.542)"
                     id="g326" /></g></g><g
                 transform="translate(47.065,-86.87)"
                 id="g328" /></g></g><g
             id="g330"><g
               transform="translate(289.468,86.87)"
               id="g332"><g
                 id="g334"><g
                   transform="translate(-339.854,-120.542)"
                   id="g336"><text
                     id="text342"
                     style="font-variant:normal;font-weight:normal;font-size:9.96259975px;font-family:CMR10;-inkscape-font-specification:CMR10;writing-mode:lr-tb;fill:#000000;fill-opacity:1;fill-rule:nonzero;stroke:none"
                     transform="matrix(1,0,0,-1,339.854,120.542)"><tspan
                       id="tspan338"
                       y="0"
                       x="0 7.3334699 11.760849 15.635304 20.062683 25.318953 29.193407 34.174706 38.049164">Retentate</tspan><tspan
                       id="tspan340"
                       y="-2.5179999"
                       x="48.43">˙</tspan></text>
<text
                     id="text346"
                     style="font-variant:normal;font-weight:normal;font-size:9.96259975px;font-family:CMMI10;-inkscape-font-specification:CMMI10;writing-mode:lr-tb;fill:#000000;fill-opacity:1;fill-rule:nonzero;stroke:none"
                     transform="matrix(1,0,0,-1,385.655,120.542)"><tspan
                       id="tspan344"
                       y="0"
                       x="0">V</tspan></text>
<text
                     id="text350"
                     style="font-variant:normal;font-weight:normal;font-size:6.97380018px;font-family:CMMI7;-inkscape-font-specification:CMMI7;writing-mode:lr-tb;fill:#000000;fill-opacity:1;fill-rule:nonzero;stroke:none"
                     transform="matrix(1,0,0,-1,391.466,119.047)"><tspan
                       id="tspan348"
                       y="0"
                       x="0">r</tspan></text>
<g
                     transform="translate(339.854,120.542)"
                     id="g352" /></g></g><g
                 transform="translate(-289.468,-86.87)"
                 id="g354" /></g></g><g
             id="g356"><g
               transform="translate(278.849,-25.838)"
               id="g358"><g
                 id="g360"><g
                   transform="translate(-329.235,-7.834)"
                   id="g362"><text
                     id="text368"
                     style="font-variant:normal;font-weight:normal;font-size:9.96259975px;font-family:CMR10;-inkscape-font-specification:CMR10;writing-mode:lr-tb;fill:#000000;fill-opacity:1;fill-rule:nonzero;stroke:none"
                     transform="matrix(1,0,0,-1,329.235,7.834)"><tspan
                       id="tspan364"
                       y="0"
                       x="0 6.5015926 10.928972 14.831323 23.133158 27.560537 32.541836 36.41629">Permeate</tspan><tspan
                       id="tspan366"
                       y="-2.5179999"
                       x="46.797001">˙</tspan></text>
<text
                     id="text372"
                     style="font-variant:normal;font-weight:normal;font-size:9.96259975px;font-family:CMMI10;-inkscape-font-specification:CMMI10;writing-mode:lr-tb;fill:#000000;fill-opacity:1;fill-rule:nonzero;stroke:none"
                     transform="matrix(1,0,0,-1,373.403,7.834)"><tspan
                       id="tspan370"
                       y="0"
                       x="0">V</tspan></text>
<text
                     id="text376"
                     style="font-variant:normal;font-weight:normal;font-size:6.97380018px;font-family:CMMI7;-inkscape-font-specification:CMMI7;writing-mode:lr-tb;fill:#000000;fill-opacity:1;fill-rule:nonzero;stroke:none"
                     transform="matrix(1,0,0,-1,379.215,6.34)"><tspan
                       id="tspan374"
                       y="0"
                       x="0">p</tspan></text>
<g
                     transform="translate(329.235,7.834)"
                     id="g378" /></g></g><g
                 transform="translate(-278.849,25.838)"
                 id="g380" /></g></g><path
             id="path382"
             style="fill:none;stroke:#000000;stroke-width:0.3985;stroke-linecap:butt;stroke-linejoin:miter;stroke-miterlimit:10;stroke-dasharray:none;stroke-opacity:1"
             d="M 70.867,51.02432 V 72.39725" /><g
             transform="rotate(90,-0.765125,71.632125)"
             id="g384"><g
               id="g386"><path
                 id="path388"
                 style="fill:none;stroke:#000000;stroke-width:0.3985;stroke-linecap:butt;stroke-linejoin:miter;stroke-miterlimit:10;stroke-dasharray:none;stroke-opacity:1"
                 d="M 6.15236,0 C 5.39682,0.18257 2.07571,1.21715 0,2.34303 V -2.34303 C 2.07571,-1.21715 5.39682,-0.18257 6.15236,0 Z" /></g></g><g
             id="g390"><g
               id="g392"><path
                 id="path394"
                 style="fill:#ffffff;fill-opacity:1;fill-rule:nonzero;stroke:none"
                 d="M 67.57932,78.29874 H 40.27818 V 58.07437 h 27.30114 z" /></g><g
               transform="matrix(1.5,0,0,1.5,41.025,63.096)"
               id="g396"><g
                 id="g398"><g
                   transform="translate(-91.411,-96.768)"
                   id="g400"><text
                     id="text404"
                     style="font-variant:normal;font-weight:normal;font-size:9.96259975px;font-family:CMMI10;-inkscape-font-specification:CMMI10;writing-mode:lr-tb;fill:#000000;fill-opacity:1;fill-rule:nonzero;stroke:none"
                     transform="matrix(1,0,0,-1,91.751,99.287)"><tspan
                       id="tspan402"
                       y="0"
                       x="0">⃗</tspan></text>
<text
                     id="text408"
                     style="font-variant:normal;font-weight:normal;font-size:9.96259975px;font-family:CMR10;-inkscape-font-specification:CMR10;writing-mode:lr-tb;fill:#000000;fill-opacity:1;fill-rule:nonzero;stroke:none"
                     transform="matrix(1,0,0,-1,91.411,96.768)"><tspan
                       id="tspan406"
                       y="0"
                       x="0">Φ</tspan></text>
<text
                     id="text412"
                     style="font-variant:normal;font-weight:normal;font-size:6.97380018px;font-family:CMMI7;-inkscape-font-specification:CMMI7;writing-mode:lr-tb;fill:#000000;fill-opacity:1;fill-rule:nonzero;stroke:none"
                     transform="matrix(1,0,0,-1,98.606,95.274)"><tspan
                       id="tspan410"
                       y="0"
                       x="0 3.4471493 5.8133597">δ,j</tspan></text>
<g
                     transform="translate(91.411,96.768)"
                     id="g414" /></g></g><g
                 transform="translate(-41.025,-63.096)"
                 id="g416" /></g></g><path
             id="path418"
             style="fill:none;stroke:#000000;stroke-width:0.3985;stroke-linecap:butt;stroke-linejoin:miter;stroke-miterlimit:10;stroke-dasharray:none;stroke-opacity:1"
             d="M 170.08086,56.69362 V 40.98997" /><g
             transform="rotate(-90,105.53542,-64.545445)"
             id="g420"><g
               id="g422"><path
                 id="path424"
                 style="fill:none;stroke:#000000;stroke-width:0.3985;stroke-linecap:butt;stroke-linejoin:miter;stroke-miterlimit:10;stroke-dasharray:none;stroke-opacity:1"
                 d="M 6.15236,0 C 5.39682,0.18257 2.07571,1.21715 0,2.34303 V -2.34303 C 2.07571,-1.21715 5.39682,-0.18257 6.15236,0 Z" /></g></g><g
             id="g426"><g
               id="g428"><path
                 id="path430"
                 style="fill:#ffffff;fill-opacity:1;fill-rule:nonzero;stroke:none"
                 d="M 204.80844,55.46704 H 175.3611 V 35.24268 h 29.44734 z" /></g><g
               transform="matrix(1.5,0,0,1.5,176.106,40.265)"
               id="g432"><g
                 id="g434"><g
                   transform="translate(-226.492,-73.937)"
                   id="g436"><text
                     id="text440"
                     style="font-variant:normal;font-weight:normal;font-size:9.96259975px;font-family:CMMI10;-inkscape-font-specification:CMMI10;writing-mode:lr-tb;fill:#000000;fill-opacity:1;fill-rule:nonzero;stroke:none"
                     transform="matrix(1,0,0,-1,226.833,76.455)"><tspan
                       id="tspan438"
                       y="0"
                       x="0">⃗</tspan></text>
<text
                     id="text444"
                     style="font-variant:normal;font-weight:normal;font-size:9.96259975px;font-family:CMR10;-inkscape-font-specification:CMR10;writing-mode:lr-tb;fill:#000000;fill-opacity:1;fill-rule:nonzero;stroke:none"
                     transform="matrix(1,0,0,-1,226.492,73.937)"><tspan
                       id="tspan442"
                       y="0"
                       x="0">Φ</tspan></text>
<text
                     id="text448"
                     style="font-variant:normal;font-weight:normal;font-size:6.97380018px;font-family:CMMI7;-inkscape-font-specification:CMMI7;writing-mode:lr-tb;fill:#000000;fill-opacity:1;fill-rule:nonzero;stroke:none"
                     transform="matrix(1,0,0,-1,233.687,72.443)"><tspan
                       id="tspan446"
                       y="0"
                       x="0 4.8732915 7.239502">β,j</tspan></text>
<g
                     transform="translate(226.492,73.937)"
                     id="g450" /></g></g><g
                 transform="translate(-176.106,-40.265)"
                 id="g452" /></g></g><path
             id="path454"
             style="fill:none;stroke:#000000;stroke-width:0.3985;stroke-linecap:butt;stroke-linejoin:miter;stroke-miterlimit:10;stroke-dasharray:none;stroke-opacity:1"
             d="M 226.77448,77.95372 V 25.39912" /><g
             transform="rotate(-90,126.0868,-100.68768)"
             id="g456"><g
               id="g458"><path
                 id="path460"
                 style="fill:none;stroke:#000000;stroke-width:0.3985;stroke-linecap:butt;stroke-linejoin:miter;stroke-miterlimit:10;stroke-dasharray:none;stroke-opacity:1"
                 d="M 6.15236,0 C 5.39682,0.18257 2.07571,1.21715 0,2.34303 V -2.34303 C 2.07571,-1.21715 5.39682,-0.18257 6.15236,0 Z" /></g></g><g
             id="g462"><g
               id="g464"><path
                 id="path466"
                 style="fill:#ffffff;fill-opacity:1;fill-rule:nonzero;stroke:none"
                 d="m 251.50981,30.25645 h -19.45508 v -13.9478 h 19.45508 z" /></g><g
               transform="matrix(1.5,0,0,1.5,232.799,19.297)"
               id="g468"><g
                 id="g470"><g
                   transform="translate(-283.185,-52.969)"
                   id="g472"><text
                     id="text476"
                     style="font-variant:normal;font-weight:normal;font-size:9.96259975px;font-family:CMMI10;-inkscape-font-specification:CMMI10;writing-mode:lr-tb;fill:#000000;fill-opacity:1;fill-rule:nonzero;stroke:none"
                     transform="matrix(1,0,0,-1,283.185,52.969)"><tspan
                       id="tspan474"
                       y="0"
                       x="0">J</tspan></text>
<text
                     id="text480"
                     style="font-variant:normal;font-weight:normal;font-size:6.97380018px;font-family:CMMI7;-inkscape-font-specification:CMMI7;writing-mode:lr-tb;fill:#000000;fill-opacity:1;fill-rule:nonzero;stroke:none"
                     transform="matrix(1,0,0,-1,288.709,51.475)"><tspan
                       id="tspan478"
                       y="0"
                       x="0">w</tspan></text>
<g
                     transform="translate(283.185,52.969)"
                     id="g482" /></g></g><g
                 transform="translate(-232.799,-19.297)"
                 id="g484" /></g></g><g
             id="g486"><path
               id="path488"
               style="fill:none;stroke:#000000;stroke-width:0.79701;stroke-linecap:butt;stroke-linejoin:miter;stroke-miterlimit:10;stroke-dasharray:none;stroke-opacity:1"
               d="M 291.97221,70.07 V 57.49062" /><g
               transform="rotate(90,110.75185,181.22035)"
               id="g490"><g
                 id="g492"><path
                   id="path494"
                   style="fill:none;stroke:#000000;stroke-width:0.79701;stroke-linecap:round;stroke-linejoin:round;stroke-miterlimit:10;stroke-dasharray:none;stroke-opacity:1"
                   d="M -2.55046,3.11095 C -2.0845,1.24435 -1.04614,0.36295 0,0 -1.04614,-0.36295 -2.0845,-1.24435 -2.55046,-3.11095" /></g></g><g
               transform="rotate(-90,174.53216,-117.44004)"
               id="g496"><g
                 id="g498"><path
                   id="path500"
                   style="fill:none;stroke:#000000;stroke-width:0.79701;stroke-linecap:round;stroke-linejoin:round;stroke-miterlimit:10;stroke-dasharray:none;stroke-opacity:1"
                   d="M -2.55046,3.11095 C -2.0845,1.24435 -1.04614,0.36295 0,0 -1.04614,-0.36295 -2.0845,-1.24435 -2.55046,-3.11095" /></g></g><g
               id="g502"><g
                 transform="matrix(1.2,0,0,1.2,296.431,59.628)"
                 id="g504"><g
                   id="g506"><g
                     transform="translate(-346.817,-93.3)"
                     id="g508"><text
                       id="text512"
                       style="font-variant:normal;font-weight:normal;font-size:9.96259975px;font-family:CMMI10;-inkscape-font-specification:CMMI10;writing-mode:lr-tb;fill:#000000;fill-opacity:1;fill-rule:nonzero;stroke:none"
                       transform="matrix(1,0,0,-1,346.817,93.3)"><tspan
                         id="tspan510"
                         y="0"
                         x="0">δ</tspan></text>
<g
                       transform="translate(346.817,93.3)"
                       id="g514" /></g></g><g
                   transform="translate(-296.431,-59.628)"
                   id="g516" /></g></g></g><g
             id="g518"><path
               id="path520"
               style="fill:none;stroke:#000000;stroke-width:0.79701;stroke-linecap:butt;stroke-linejoin:miter;stroke-miterlimit:10;stroke-dasharray:none;stroke-opacity:1"
               d="M 291.97221,55.8966 V 34.81308" /><g
               transform="rotate(90,117.83855,174.13365)"
               id="g522"><g
                 id="g524"><path
                   id="path526"
                   style="fill:none;stroke:#000000;stroke-width:0.79701;stroke-linecap:round;stroke-linejoin:round;stroke-miterlimit:10;stroke-dasharray:none;stroke-opacity:1"
                   d="M -2.55046,3.11095 C -2.0845,1.24435 -1.04614,0.36295 0,0 -1.04614,-0.36295 -2.0845,-1.24435 -2.55046,-3.11095" /></g></g><g
               transform="rotate(-90,163.19339,-128.77881)"
               id="g528"><g
                 id="g530"><path
                   id="path532"
                   style="fill:none;stroke:#000000;stroke-width:0.79701;stroke-linecap:round;stroke-linejoin:round;stroke-miterlimit:10;stroke-dasharray:none;stroke-opacity:1"
                   d="M -2.55046,3.11095 C -2.0845,1.24435 -1.04614,0.36295 0,0 -1.04614,-0.36295 -2.0845,-1.24435 -2.55046,-3.11095" /></g></g><g
               id="g534"><g
                 transform="matrix(1.2,0,0,1.2,296.431,42.365)"
                 id="g536"><g
                   id="g538"><g
                     transform="translate(-346.817,-76.037)"
                     id="g540"><text
                       id="text544"
                       style="font-variant:normal;font-weight:normal;font-size:9.96259975px;font-family:CMMI10;-inkscape-font-specification:CMMI10;writing-mode:lr-tb;fill:#000000;fill-opacity:1;fill-rule:nonzero;stroke:none"
                       transform="matrix(1,0,0,-1,346.817,76.037)"><tspan
                         id="tspan542"
                         y="0"
                         x="0">β</tspan></text>
<g
                       transform="translate(346.817,76.037)"
                       id="g546" /></g></g><g
                   transform="translate(-296.431,-42.365)"
                   id="g548" /></g></g></g></g></g></g></g></svg>