<svg xmlns="http://www.w3.org/2000/svg" xmlns:xlink="http://www.w3.org/1999/xlink" version="1.1" width="423.533" height="172.306" viewBox="0 0 423.533 172.306">
<defs>
<clipPath id="clip_0">
<path transform="matrix(1,0,0,-1,50.386,138.634)" d="M2.83484 34.01608V56.69362H280.6332V34.01608ZM280.6332 56.69362"/>
</clipPath>
<g id="pattern_tile_1">
<path transform="matrix(.76604,-.64279,-.64279,-.76604,0,172.306)" stroke-width=".79701" stroke-linecap="butt" stroke-miterlimit="10" stroke-linejoin="miter" fill="none" stroke="#0000ff" d="M0 0H4.98138"/>
</g>
<pattern id="pattern_1" patternUnits="userSpaceOnUse" patternContentUnits="userSpaceOnUse" x="0" y="0" width="4.98138" height="4.98138">
<g transform="matrix(.7660428,-.6427924,-.6427924,-.7660428,110.75699,131.99378)">
<use x="0" y="0" xlink:href="#pattern_tile_1"/>
</g>
</pattern>
</defs>
<path transform="matrix(1,0,0,-1,50.386,138.634)" stroke-width=".3985" stroke-linecap="butt" stroke-miterlimit="10" stroke-linejoin="miter" fill="none" stroke="#000000" d="M0 0H333.1878"/>
<path transform="matrix(1,0,0,-1,383.5738,138.634)" d="M6.15236 0C5.39682 .18257 2.07571 1.21715 0 2.34303V-2.34303C2.07571-1.21715 5.39682-.18257 6.15236 0Z"/>
<path transform="matrix(1,0,0,-1,383.5738,138.634)" stroke-width=".3985" stroke-linecap="butt" stroke-miterlimit="10" stroke-linejoin="miter" fill="none" stroke="#000000" d="M6.15236 0C5.39682 .18257 2.07571 1.21715 0 2.34303V-2.34303C2.07571-1.21715 5.39682-.18257 6.15236 0Z"/>
<text xml:space="preserve" transform="matrix(2 0 -0 2 -397.583 190.35901)" font-size="9.9626" font-family="CMMI10" font-style="italic"><tspan y="-18.053" x="397.583">e</tspan></text>
<text xml:space="preserve" transform="matrix(2 0 -0 2 -397.583 190.35901)" font-size="6.9738" font-family="CMMI7" font-style="italic"><tspan y="-16.559" x="402.22203">x</tspan></text>
<path transform="matrix(1,0,0,-1,50.386,138.634)" stroke-width=".3985" stroke-linecap="butt" stroke-miterlimit="10" stroke-linejoin="miter" fill="none" stroke="#000000" d="M0 0V106.41335"/>
<path transform="matrix(0,-1,-1,-0,50.386,32.22065)" d="M6.15236 0C5.39682 .18257 2.07571 1.21715 0 2.34303V-2.34303C2.07571-1.21715 5.39682-.18257 6.15236 0Z"/>
<path transform="matrix(0,-1,-1,-0,50.386,32.22065)" stroke-width=".3985" stroke-linecap="butt" stroke-miterlimit="10" stroke-linejoin="miter" fill="none" stroke="#000000" d="M6.15236 0C5.39682 .18257 2.07571 1.21715 0 2.34303V-2.34303C2.07571-1.21715 5.39682-.18257 6.15236 0Z"/>
<text xml:space="preserve" transform="matrix(2 0 -0 2 -24.887999 329.392)" font-size="9.9626" font-family="CMMI10" font-style="italic"><tspan y="-157.086" x="24.888">e</tspan></text>
<text xml:space="preserve" transform="matrix(2 0 -0 2 -24.887999 329.392)" font-size="6.9738" font-family="CMMI7" font-style="italic"><tspan y="-155.592" x="29.527">z</tspan></text>
<path transform="matrix(1,0,0,-1,50.386,138.634)" stroke-width=".3985" stroke-linecap="butt" stroke-miterlimit="10" stroke-linejoin="miter" fill="none" stroke="#000000" d="M0 14.17339V85.04042H283.4681V14.17339ZM283.4681 85.04042"/>
<g clip-path="url(#clip_0)">
<rect transform="matrix(.76604,-.64279,-.64279,-.76604,0,172.306)" fill="url(#pattern_1)" x="78.66461" y="-166.53888" width="238.61081" height="207.16707"/>
</g>
<path transform="matrix(1,0,0,-1,50.386,138.634)" stroke-width=".3985" stroke-linecap="butt" stroke-miterlimit="10" stroke-linejoin="miter" fill="none" stroke="#000000" d="M2.83484 34.01608V56.69362H280.6332V34.01608ZM280.6332 56.69362"/>
<path transform="matrix(1,0,0,-1,50.386,138.634)" stroke-width=".79701" stroke-linecap="butt" stroke-dasharray="5.97766,2.98883" stroke-miterlimit="10" stroke-linejoin="miter" fill="none" stroke="#929292" d="M2.83484 70.867H280.6332"/>
<path transform="matrix(1,0,0,-1,50.386,138.634)" stroke-width="4.98138" stroke-linecap="butt" stroke-miterlimit="10" stroke-linejoin="miter" fill="none" stroke="#000000" d="M-42.5202 70.867H-18.92473"/>
<path transform="matrix(1,0,0,-1,50.386,138.634)" stroke-width="2.98883" stroke-linecap="butt" stroke-miterlimit="10" stroke-linejoin="miter" fill="none" stroke="#ffffff" d="M-42.5202 70.867H-18.92473"/>
<path transform="matrix(1,0,0,-1,31.461272,67.767009)" stroke-width=".99628" stroke-linecap="butt" stroke-miterlimit="10" stroke-linejoin="miter" fill="none" stroke="#000000" d="M14.03601 0C12.31233 .41714 4.73557 2.7809 0 5.35321V-5.35321C4.73557-2.7809 12.31233-.41714 14.03601 0Z"/>
<path transform="matrix(1,0,0,-1,50.386,138.634)" stroke-width="4.98138" stroke-linecap="butt" stroke-miterlimit="10" stroke-linejoin="miter" fill="none" stroke="#000000" d="M303.31077 70.867H324.0718"/>
<path transform="matrix(1,0,0,-1,50.386,138.634)" stroke-width="2.98883" stroke-linecap="butt" stroke-miterlimit="10" stroke-linejoin="miter" fill="none" stroke="#ffffff" d="M303.31077 70.867H324.0718"/>
<path transform="matrix(1,0,0,-1,374.45783,67.767009)" stroke-width=".99628" stroke-linecap="butt" stroke-miterlimit="10" stroke-linejoin="miter" fill="none" stroke="#000000" d="M14.03601 0C12.31233 .41714 4.73557 2.7809 0 5.35321V-5.35321C4.73557-2.7809 12.31233-.41714 14.03601 0Z"/>
<path transform="matrix(1,0,0,-1,50.386,138.634)" stroke-width="4.98138" stroke-linecap="butt" stroke-miterlimit="10" stroke-linejoin="miter" fill="none" stroke="#000000" d="M269.29469 11.33855V-15.09177"/>
<path transform="matrix(1,0,0,-1,50.386,138.634)" stroke-width="2.98883" stroke-linecap="butt" stroke-miterlimit="10" stroke-linejoin="miter" fill="none" stroke="#ffffff" d="M269.29469 11.33855V-15.09177"/>
<path transform="matrix(0,1,1,0,319.68067,153.72577)" stroke-width=".99628" stroke-linecap="butt" stroke-miterlimit="10" stroke-linejoin="miter" fill="none" stroke="#000000" d="M14.03601 0C12.31233 .41714 4.73557 2.7809 0 5.35321V-5.35321C4.73557-2.7809 12.31233-.41714 14.03601 0Z"/>
<path transform="matrix(1,0,0,-1,50.386,138.634)" stroke-width=".79701" stroke-linecap="butt" stroke-miterlimit="10" stroke-linejoin="miter" fill="none" stroke="#0000ff" d="M113.38724 85.04042 113.44907 83.18655 113.63074 81.34091 113.93265 79.51085 114.35307 77.7037 114.89246 75.929 115.54602 74.19324 116.3116 72.50372 117.18492 70.867 118.16547 69.29257 119.24596 67.78474 120.4229 66.35043 121.68979 64.99617 123.04407 63.72926 124.47836 62.55234 125.98619 61.47185 127.56062 60.49129 129.19736 59.61798 130.88686 58.8524 132.62262 58.19884 134.39733 57.65945 136.20447 57.23903 138.03453 56.93712 139.88018 56.75545 141.73404 56.69362"/>
<path transform="matrix(1,0,0,-1,50.386,138.634)" stroke-width=".79701" stroke-linecap="butt" stroke-miterlimit="10" stroke-linejoin="miter" fill="none" stroke="#0000ff" d="M147.40332 56.69362H155.90744"/>
<path transform="matrix(1,0,0,-1,50.386,138.634)" stroke-width=".79701" stroke-linecap="butt" stroke-miterlimit="10" stroke-linejoin="miter" fill="none" stroke="#0000ff" d="M155.90744 56.69362 99.21382 34.01608"/>
<path transform="matrix(1,0,0,-1,50.386,138.634)" stroke-width=".79701" stroke-linecap="butt" stroke-miterlimit="10" stroke-linejoin="miter" fill="none" stroke="#0000ff" d="M99.21382 34.01608H85.04042"/>
<path transform="matrix(1,0,0,-1,50.386,138.634)" stroke-width=".79701" stroke-linecap="butt" stroke-miterlimit="10" stroke-linejoin="miter" fill="none" stroke="#0000ff" d="M85.04042 34.01608V14.17339"/>
<path transform="matrix(1,0,0,-1,50.386,138.634)" stroke-width=".79701" stroke-linecap="butt" stroke-miterlimit="10" stroke-linejoin="miter" fill="none" stroke="#000000" d="M115.37979 85.04042C115.37979 86.1409 114.4877 87.03297 113.38724 87.03297 112.28676 87.03297 111.39468 86.1409 111.39468 85.04042 111.39468 83.93996 112.28676 83.04787 113.38724 83.04787 114.4877 83.04787 115.37979 83.93996 115.37979 85.04042ZM113.38724 85.04042"/>
<path transform="matrix(1,0,0,-1,50.386,138.634)" d="M115.37979 85.04042C115.37979 86.1409 114.4877 87.03297 113.38724 87.03297 112.28676 87.03297 111.39468 86.1409 111.39468 85.04042 111.39468 83.93996 112.28676 83.04787 113.38724 83.04787 114.4877 83.04787 115.37979 83.93996 115.37979 85.04042ZM113.38724 85.04042" fill="#ffffff"/>
<text xml:space="preserve" transform="matrix(1.2 0 -0 1.2 -33.420015 196.66742)" font-size="9.9626" font-family="CMR10"><tspan y="-121.807" x="167.1">r</tspan></text>
<path transform="matrix(1,0,0,-1,50.386,138.634)" stroke-width=".79701" stroke-linecap="butt" stroke-miterlimit="10" stroke-linejoin="miter" fill="none" stroke="#000000" d="M149.39588 56.69362C149.39588 57.79408 148.50379 58.68617 147.40332 58.68617 146.30284 58.68617 145.41077 57.79408 145.41077 56.69362 145.41077 55.59314 146.30284 54.70107 147.40332 54.70107 148.50379 54.70107 149.39588 55.59314 149.39588 56.69362ZM147.40332 56.69362"/>
<path transform="matrix(1,0,0,-1,50.386,138.634)" d="M149.39588 56.69362C149.39588 57.79408 148.50379 58.68617 147.40332 58.68617 146.30284 58.68617 145.41077 57.79408 145.41077 56.69362 145.41077 55.59314 146.30284 54.70107 147.40332 54.70107 148.50379 54.70107 149.39588 55.59314 149.39588 56.69362ZM147.40332 56.69362" fill="#ffffff"/>
<text xml:space="preserve" transform="matrix(1.2 0 -0 1.2 -36.560594 191.2816)" font-size="9.9626" font-family="CMR10"><tspan y="-94.878" x="182.803 186.70833 190.02588">r-m</tspan></text>
<path transform="matrix(1,0,0,-1,50.386,138.634)" stroke-width=".79701" stroke-linecap="butt" stroke-miterlimit="10" stroke-linejoin="miter" fill="none" stroke="#000000" d="M157.9 56.69362C157.9 57.79408 157.0079 58.68617 155.90744 58.68617 154.80696 58.68617 153.91489 57.79408 153.91489 56.69362 153.91489 55.59314 154.80696 54.70107 155.90744 54.70107 157.0079 54.70107 157.9 55.59314 157.9 56.69362ZM155.90744 56.69362"/>
<path transform="matrix(1,0,0,-1,50.386,138.634)" d="M157.9 56.69362C157.9 57.79408 157.0079 58.68617 155.90744 58.68617 154.80696 58.68617 153.91489 57.79408 153.91489 56.69362 153.91489 55.59314 154.80696 54.70107 155.90744 54.70107 157.0079 54.70107 157.9 55.59314 157.9 56.69362ZM155.90744 56.69362" fill="#ffffff"/>
<text xml:space="preserve" transform="matrix(1.2 0 -0 1.2 -41.962816 191.2816)" font-size="9.9626" font-family="CMR10"><tspan y="-94.878" x="209.814">m</tspan></text>
<path transform="matrix(1,0,0,-1,50.386,138.634)" stroke-width=".79701" stroke-linecap="butt" stroke-miterlimit="10" stroke-linejoin="miter" fill="none" stroke="#000000" d="M101.20638 34.01608C101.20638 35.11655 100.31429 36.00864 99.21382 36.00864 98.11334 36.00864 97.22127 35.11655 97.22127 34.01608 97.22127 32.9156 98.11334 32.02353 99.21382 32.02353 100.31429 32.02353 101.20638 32.9156 101.20638 34.01608ZM99.21382 34.01608"/>
<path transform="matrix(1,0,0,-1,50.386,138.634)" d="M101.20638 34.01608C101.20638 35.11655 100.31429 36.00864 99.21382 36.00864 98.11334 36.00864 97.22127 35.11655 97.22127 34.01608 97.22127 32.9156 98.11334 32.02353 99.21382 32.02353 100.31429 32.02353 101.20638 32.9156 101.20638 34.01608ZM99.21382 34.01608" fill="#ffffff"/>
<text xml:space="preserve" transform="matrix(1.2 0 -0 1.2 -30.624207 183.9114)" font-size="9.9626" font-family="CMR10"><tspan y="-58.027" x="153.121">m</tspan></text>
<path transform="matrix(1,0,0,-1,50.386,138.634)" stroke-width=".79701" stroke-linecap="butt" stroke-miterlimit="10" stroke-linejoin="miter" fill="none" stroke="#000000" d="M87.03297 34.01608C87.03297 35.11655 86.1409 36.00864 85.04042 36.00864 83.93996 36.00864 83.04787 35.11655 83.04787 34.01608 83.04787 32.9156 83.93996 32.02353 85.04042 32.02353 86.1409 32.02353 87.03297 32.9156 87.03297 34.01608ZM85.04042 34.01608"/>
<path transform="matrix(1,0,0,-1,50.386,138.634)" d="M87.03297 34.01608C87.03297 35.11655 86.1409 36.00864 85.04042 36.00864 83.93996 36.00864 83.04787 35.11655 83.04787 34.01608 83.04787 32.9156 83.93996 32.02353 85.04042 32.02353 86.1409 32.02353 87.03297 32.9156 87.03297 34.01608ZM85.04042 34.01608" fill="#ffffff"/>
<text xml:space="preserve" transform="matrix(1.2 0 -0 1.2 -22.191407 184.14402)" font-size="9.9626" font-family="CMR10"><tspan y="-59.19" x="110.957 119.255847 122.57339">m-p</tspan></text>
<path transform="matrix(1,0,0,-1,50.386,138.634)" stroke-width=".79701" stroke-linecap="butt" stroke-miterlimit="10" stroke-linejoin="miter" fill="none" stroke="#000000" d="M87.03297 14.17339C87.03297 15.27386 86.1409 16.16594 85.04042 16.16594 83.93996 16.16594 83.04787 15.27386 83.04787 14.17339 83.04787 13.07292 83.93996 12.18083 85.04042 12.18083 86.1409 12.18083 87.03297 13.07292 87.03297 14.17339ZM85.04042 14.17339"/>
<path transform="matrix(1,0,0,-1,50.386,138.634)" d="M87.03297 14.17339C87.03297 15.27386 86.1409 16.16594 85.04042 16.16594 83.93996 16.16594 83.04787 15.27386 83.04787 14.17339 83.04787 13.07292 83.93996 12.18083 85.04042 12.18083 86.1409 12.18083 87.03297 13.07292 87.03297 14.17339ZM85.04042 14.17339" fill="#ffffff"/>
<text xml:space="preserve" transform="matrix(1.2 0 -0 1.2 -28.121613 180.1754)" font-size="9.9626" font-family="CMR10"><tspan y="-39.347" x="140.608">p</tspan></text>
<text xml:space="preserve" transform="matrix(1 0 -0 1 .000002861023 172.306)" font-size="9.9626" font-family="CMR10"><tspan y="-120.542" x="3.321 8.999682 13.423077 17.846472">Feed</tspan><tspan y="-123.06" x="29.334">&#x02d9;</tspan></text>
<text xml:space="preserve" transform="matrix(1 0 -0 1 .000002861023 172.306)" font-size="9.9626" font-family="CMMI10" font-style="italic"><tspan y="-120.542" x="26.705">V</tspan></text>
<text xml:space="preserve" transform="matrix(1 0 -0 1 .000002861023 172.306)" font-size="6.9738" font-family="CMMI7" font-style="italic"><tspan y="-119.047" x="32.517 35.334417">in</tspan></text>
<text xml:space="preserve" transform="matrix(1 0 -0 1 0 172.306)" font-size="9.9626" font-family="CMR10"><tspan y="-120.542" x="339.854 347.1865 351.6099 355.48536 359.90876 365.169 369.04447 374.02577 377.9012">Retentate</tspan><tspan y="-123.06" x="388.284">&#x02d9;</tspan></text>
<text xml:space="preserve" transform="matrix(1 0 -0 1 0 172.306)" font-size="9.9626" font-family="CMMI10" font-style="italic"><tspan y="-120.542" x="385.655">V</tspan></text>
<text xml:space="preserve" transform="matrix(1 0 -0 1 0 172.306)" font-size="6.9738" font-family="CMMI7" font-style="italic"><tspan y="-119.047" x="391.466">r</tspan></text>
<text xml:space="preserve" transform="matrix(1 0 -0 1 0 172.306)" font-size="9.9626" font-family="CMR10"><tspan y="-7.834" x="329.235 335.74058 340.16398 344.0693 352.36817 356.79158 361.77287 365.64833">Permeate</tspan><tspan y="-10.352" x="376.03199">&#x02d9;</tspan></text>
<text xml:space="preserve" transform="matrix(1 0 -0 1 0 172.306)" font-size="9.9626" font-family="CMMI10" font-style="italic"><tspan y="-7.8340008" x="373.40299">V</tspan></text>
<text xml:space="preserve" transform="matrix(1 0 -0 1 0 172.306)" font-size="6.9738" font-family="CMMI7" font-style="italic"><tspan y="-6.3400008" x="379.215">p</tspan></text>
<path transform="matrix(1,0,0,-1,50.386,138.634)" stroke-width=".3985" stroke-linecap="butt" stroke-miterlimit="10" stroke-linejoin="miter" fill="none" stroke="#000000" d="M70.867 51.02432V72.39725"/>
<path transform="matrix(0,-1,-1,-0,121.253,66.236759)" stroke-width=".3985" stroke-linecap="butt" stroke-miterlimit="10" stroke-linejoin="miter" fill="none" stroke="#000000" d="M6.15236 0C5.39682 .18257 2.07571 1.21715 0 2.34303V-2.34303C2.07571-1.21715 5.39682-.18257 6.15236 0Z"/>
<path transform="matrix(1,0,0,-1,50.386,138.634)" d="M67.57932 78.29874H40.27818V58.07437H67.57932ZM40.27818 58.07437" fill="#ffffff"/>
<text xml:space="preserve" transform="matrix(1.5 0 -0 1.5 -45.705499 220.69)" font-size="9.9626" font-family="CMMI10" font-style="italic"><tspan y="-99.287" x="91.751">&#x20d7;</tspan></text>
<text xml:space="preserve" transform="matrix(1.5 0 -0 1.5 -45.705499 220.69)" font-size="9.9626" font-family="CMR10"><tspan y="-96.768009" x="91.411">&#x03a6;</tspan></text>
<text xml:space="preserve" transform="matrix(1.5 0 -0 1.5 -45.705499 220.69)" font-size="6.9738" font-family="CMMI7" font-style="italic"><tspan y="-95.274" x="98.606 102.051059 104.41518">&#x03b4;,j</tspan></text>
<path transform="matrix(1,0,0,-1,50.386,138.634)" stroke-width=".3985" stroke-linecap="butt" stroke-miterlimit="10" stroke-linejoin="miter" fill="none" stroke="#000000" d="M170.08086 56.69362V40.98997"/>
<path transform="matrix(0,1,1,0,220.46686,97.64403)" stroke-width=".3985" stroke-linecap="butt" stroke-miterlimit="10" stroke-linejoin="miter" fill="none" stroke="#000000" d="M6.15236 0C5.39682 .18257 2.07571 1.21715 0 2.34303V-2.34303C2.07571-1.21715 5.39682-.18257 6.15236 0Z"/>
<path transform="matrix(1,0,0,-1,50.386,138.634)" d="M204.80844 55.46704H175.3611V35.24268H204.80844ZM175.3611 35.24268" fill="#ffffff"/>
<text xml:space="preserve" transform="matrix(1.5 0 -0 1.5 -113.246 209.2745)" font-size="9.9626" font-family="CMMI10" font-style="italic"><tspan y="-76.455" x="226.833">&#x20d7;</tspan></text>
<text xml:space="preserve" transform="matrix(1.5 0 -0 1.5 -113.246 209.2745)" font-size="9.9626" font-family="CMR10"><tspan y="-73.937007" x="226.49199">&#x03a6;</tspan></text>
<text xml:space="preserve" transform="matrix(1.5 0 -0 1.5 -113.246 209.2745)" font-size="6.9738" font-family="CMMI7" font-style="italic"><tspan y="-72.443" x="233.687 238.56169 240.92581">&#x03b2;,j</tspan></text>
<path transform="matrix(1,0,0,-1,50.386,138.634)" stroke-width=".3985" stroke-linecap="butt" stroke-miterlimit="10" stroke-linejoin="miter" fill="none" stroke="#000000" d="M226.77448 77.95372V25.39912"/>
<path transform="matrix(0,1,1,0,277.16047,113.23488)" stroke-width=".3985" stroke-linecap="butt" stroke-miterlimit="10" stroke-linejoin="miter" fill="none" stroke="#000000" d="M6.15236 0C5.39682 .18257 2.07571 1.21715 0 2.34303V-2.34303C2.07571-1.21715 5.39682-.18257 6.15236 0Z"/>
<path transform="matrix(1,0,0,-1,50.386,138.634)" d="M251.50981 30.25645H232.05474V16.30865H251.50981ZM232.05474 16.30865" fill="#ffffff"/>
<text xml:space="preserve" transform="matrix(1.5 0 -0 1.5 -141.5925 198.79051)" font-size="9.9626" font-family="CMMI10" font-style="italic"><tspan y="-52.969" x="283.185">J</tspan></text>
<text xml:space="preserve" transform="matrix(1.5 0 -0 1.5 -141.5925 198.79051)" font-size="6.9738" font-family="CMMI7" font-style="italic"><tspan y="-51.475004" x="288.70899">w</tspan></text>
<path transform="matrix(1,0,0,-1,50.386,138.634)" stroke-width=".79701" stroke-linecap="butt" stroke-miterlimit="10" stroke-linejoin="miter" fill="none" stroke="#000000" d="M291.9722 70.07V57.49062"/>
<path transform="matrix(0,-1,-1,-0,342.35823,68.165508)" stroke-width=".79701" stroke-linecap="round" stroke-linejoin="round" fill="none" stroke="#000000" d="M-2.55046 3.11095C-2.0845 1.24435-1.04614 .36295 0 0-1.04614-.36295-2.0845-1.24435-2.55046-3.11095"/>
<path transform="matrix(0,1,1,0,342.35823,81.541889)" stroke-width=".79701" stroke-linecap="round" stroke-linejoin="round" fill="none" stroke="#000000" d="M-2.55046 3.11095C-2.0845 1.24435-1.04614 .36295 0 0-1.04614-.36295-2.0845-1.24435-2.55046-3.11095"/>
<text xml:space="preserve" transform="matrix(1.2 0 -0 1.2 -69.36337 190.966)" font-size="9.9626" font-family="CMMI10" font-style="italic"><tspan y="-93.3" x="346.817">&#x03b4;</tspan></text>
<path transform="matrix(1,0,0,-1,50.386,138.634)" stroke-width=".79701" stroke-linecap="butt" stroke-miterlimit="10" stroke-linejoin="miter" fill="none" stroke="#000000" d="M291.9722 55.8966V34.81308"/>
<path transform="matrix(0,-1,-1,-0,342.35823,82.3389)" stroke-width=".79701" stroke-linecap="round" stroke-linejoin="round" fill="none" stroke="#000000" d="M-2.55046 3.11095C-2.0845 1.24435-1.04614 .36295 0 0-1.04614-.36295-2.0845-1.24435-2.55046-3.11095"/>
<path transform="matrix(0,1,1,0,342.35823,104.21942)" stroke-width=".79701" stroke-linecap="round" stroke-linejoin="round" fill="none" stroke="#000000" d="M-2.55046 3.11095C-2.0845 1.24435-1.04614 .36295 0 0-1.04614-.36295-2.0845-1.24435-2.55046-3.11095"/>
<text xml:space="preserve" transform="matrix(1.2 0 -0 1.2 -69.36337 187.5134)" font-size="9.9626" font-family="CMMI10" font-style="italic"><tspan y="-76.037" x="346.817">&#x03b2;</tspan></text>
</svg>
